999
Inkscape export via OpenSCAD DXF Export
  0
SECTION
  2
HEADER
  9
$ACADVER
  1
AC1014
  9
$HANDSEED
  5
FFFF
  9
$MEASUREMENT
 70
     1
  0
ENDSEC
  0
SECTION
  2
TABLES
  0
TABLE
  2
VPORT
  5
8
330
0
100
AcDbSymbolTable
 70
     4
  0
VPORT
  5
2E
330
8
100
AcDbSymbolTableRecord
100
AcDbViewportTableRecord
  2
*ACTIVE
 70
     0
 10
0.0
 20
0.0
 11
1.0
 21
1.0
 12
210.0
 22
148.5
 13
0.0
 23
0.0
 14
10.0
 24
10.0
 15
10.0
 25
10.0
 16
0.0
 26
0.0
 36
1.0
 17
0.0
 27
0.0
 37
0.0
 40
341.0
 41
1.24
 42
50.0
 43
0.0
 44
0.0
 50
0.0
 51
0.0
 71
     0
 72
   100
 73
     1
 74
     3
 75
     0
 76
     0
 77
     0
 78
     0
  0
ENDTAB
  0
TABLE
  2
LTYPE
  5
5
330
0
100
AcDbSymbolTable
 70
     1
  0
LTYPE
  5
14
330
5
100
AcDbSymbolTableRecord
100
AcDbLinetypeTableRecord
  2
BYBLOCK
 70
     0
  3

 72
    65
 73
     0
 40
0.0
  0
LTYPE
  5
15
330
5
100
AcDbSymbolTableRecord
100
AcDbLinetypeTableRecord
  2
BYLAYER
 70
     0
  3

 72
    65
 73
     0
 40
0.0
  0
LTYPE
  5
16
330
5
100
AcDbSymbolTableRecord
100
AcDbLinetypeTableRecord
  2
CONTINUOUS
 70
     0
  3
Solid line
 72
    65
 73
     0
 40
0.0
  0
ENDTAB
  0
TABLE
0
TABLE
2
LAYER
5
2
330
0
100
AcDbSymbolTable
70
1
0
LAYER
5
10
330
2
100
AcDbSymbolTableRecord
100
AcDbLayerTableRecord
2
Layer_1
70
0
62
7
6
CONTINUOUS
0
ENDTAB
0
ENDSEC
  0
ENDTAB
  0
TABLE
  2
STYLE
  5
3
330
0
100
AcDbSymbolTable
 70
     1
  0
STYLE
  5
11
330
3
100
AcDbSymbolTableRecord
100
AcDbTextStyleTableRecord
  2
STANDARD
 70
     0
 40
0.0
 41
1.0
 50
0.0
 71
     0
 42
2.5
  3
txt
  4

  0
ENDTAB
  0
TABLE
  2
VIEW
  5
6
330
0
100
AcDbSymbolTable
 70
     0
  0
ENDTAB
  0
TABLE
  2
UCS
  5
7
330
0
100
AcDbSymbolTable
 70
     0
  0
ENDTAB
  0
TABLE
  2
APPID
  5
9
330
0
100
AcDbSymbolTable
 70
     2
  0
APPID
  5
12
330
9
100
AcDbSymbolTableRecord
100
AcDbRegAppTableRecord
  2
ACAD
 70
     0
  0
ENDTAB
  0
TABLE
  2
DIMSTYLE
  5
A
330
0
100
AcDbSymbolTable
 70
     1
  0
DIMSTYLE
105
27
330
A
100
AcDbSymbolTableRecord
100
AcDbDimStyleTableRecord
  2
ISO-25
 70
     0
  3

  4

  5

  6

  7

 40
1.0
 41
2.5
 42
0.625
 43
3.75
 44
1.25
 45
0.0
 46
0.0
 47
0.0
 48
0.0
140
2.5
141
2.5
142
0.0
143
0.03937007874016
144
1.0
145
0.0
146
1.0
147
0.625
 71
     0
 72
     0
 73
     0
 74
     0
 75
     0
 76
     0
 77
     1
 78
     8
170
     0
171
     3
172
     1
173
     0
174
     0
175
     0
176
     0
177
     0
178
     0
270
     2
271
     2
272
     2
273
     2
274
     3
340
11
275
     0
280
     0
281
     0
282
     0
283
     0
284
     8
285
     0
286
     0
287
     3
288
     0
  0
ENDTAB
  0
TABLE
  2
BLOCK_RECORD
  5
1
330
0
100
AcDbSymbolTable
 70
     1
  0
BLOCK_RECORD
  5
1F
330
1
100
AcDbSymbolTableRecord
100
AcDbBlockTableRecord
  2
*MODEL_SPACE
  0
BLOCK_RECORD
  5
1B
330
1
100
AcDbSymbolTableRecord
100
AcDbBlockTableRecord
  2
*PAPER_SPACE
  0
ENDTAB
  0
ENDSEC
  0
SECTION
  2
BLOCKS
  0
BLOCK
  5
20
330
1F
100
AcDbEntity
  8
0
100
AcDbBlockBegin
  2
*MODEL_SPACE
 70
     0
 10
0.0
 20
0.0
 30
0.0
  3
*MODEL_SPACE
  1

  0
ENDBLK
  5
21
330
1F
100
AcDbEntity
  8
0
100
AcDbBlockEnd
  0
BLOCK
  5
1C
330
1B
100
AcDbEntity
 67
     1
  8
0
100
AcDbBlockBegin
  2
*PAPER_SPACE
  1

  0
ENDBLK
  5
1D
330
1B
100
AcDbEntity
 67
     1
  8
0
100
AcDbBlockEnd
  0
ENDSEC
  0
SECTION
  2
ENTITIES
0
DIMENSION
5
83
100
AcDbEntity
62
256
370
-1
6
ByLayer
1
total_width
3
Standard
70
0
71
5
72
1
41
1.0
100
AcDbAlignedDimension
13
0.065791
23
0.000000
33
0.0
14
282.222222
24
0.000000
34
0.0
50
0.000000
100
AcDbRotatedDimension
0
DIMENSION
5
83
100
AcDbEntity
62
256
370
-1
6
ByLayer
1
total_minx
3
Standard
70
0
71
5
72
1
41
1.0
100
AcDbAlignedDimension
13
0.065791
23
0.000000
33
0.0
14
0.000000
24
0.000000
34
0.0
50
0.000000
100
AcDbRotatedDimension
0
DIMENSION
5
83
100
AcDbEntity
62
256
370
-1
6
ByLayer
1
total_maxx
3
Standard
70
0
71
5
72
1
41
1.0
100
AcDbAlignedDimension
13
0.000000
23
0.000000
33
0.0
14
282.222222
24
0.000000
34
0.0
50
0.000000
100
AcDbRotatedDimension
0
DIMENSION
5
83
100
AcDbEntity
62
256
370
-1
6
ByLayer
1
total_height
3
Standard
70
0
71
5
72
1
41
1.0
100
AcDbAlignedDimension
13
0.000000
23
-0.197482
33
0.0
14
0.000000
24
41.490765
34
0.0
50
90.000000
100
AcDbRotatedDimension
0
DIMENSION
5
83
100
AcDbEntity
62
256
370
-1
6
ByLayer
1
total_miny
3
Standard
70
0
71
5
72
1
41
1.0
100
AcDbAlignedDimension
13
-0.197482
23
0.000000
33
0.0
14
0.000000
24
0.000000
34
0.0
50
0.000000
100
AcDbRotatedDimension
0
DIMENSION
5
83
100
AcDbEntity
62
256
370
-1
6
ByLayer
1
total_maxy
3
Standard
70
0
71
5
72
1
41
1.0
100
AcDbAlignedDimension
13
0.000000
23
0.000000
33
0.0
14
41.490765
24
0.000000
34
0.0
50
0.000000
100
AcDbRotatedDimension
0
DIMENSION
8
Layer_1
5
83
100
AcDbEntity
62
256
370
-1
6
ByLayer
1
Layer_1_width
3
Standard
70
0
71
5
72
1
41
1.0
100
AcDbAlignedDimension
13
0.065791
23
0.000000
33
0.0
14
282.222222
24
0.000000
34
0.0
50
0.000000
100
AcDbRotatedDimension
0
DIMENSION
8
Layer_1
5
83
100
AcDbEntity
62
256
370
-1
6
ByLayer
1
Layer_1_minx
3
Standard
70
0
71
5
72
1
41
1.0
100
AcDbAlignedDimension
13
0.065791
23
0.000000
33
0.0
14
0.000000
24
0.000000
34
0.0
50
0.000000
100
AcDbRotatedDimension
0
DIMENSION
8
Layer_1
5
83
100
AcDbEntity
62
256
370
-1
6
ByLayer
1
Layer_1_maxx
3
Standard
70
0
71
5
72
1
41
1.0
100
AcDbAlignedDimension
13
0.000000
23
0.000000
33
0.0
14
282.222222
24
0.000000
34
0.0
50
0.000000
100
AcDbRotatedDimension
0
DIMENSION
8
Layer_1
5
83
100
AcDbEntity
62
256
370
-1
6
ByLayer
1
Layer_1_height
3
Standard
70
0
71
5
72
1
41
1.0
100
AcDbAlignedDimension
13
0.000000
23
-0.197482
33
0.0
14
0.000000
24
41.490765
34
0.0
50
90.000000
100
AcDbRotatedDimension
0
DIMENSION
8
Layer_1
5
83
100
AcDbEntity
62
256
370
-1
6
ByLayer
1
Layer_1_miny
3
Standard
70
0
71
5
72
1
41
1.0
100
AcDbAlignedDimension
13
-0.197482
23
0.000000
33
0.0
14
0.000000
24
0.000000
34
0.0
50
0.000000
100
AcDbRotatedDimension
0
DIMENSION
8
Layer_1
5
83
100
AcDbEntity
62
256
370
-1
6
ByLayer
1
Layer_1_maxy
3
Standard
70
0
71
5
72
1
41
1.0
100
AcDbAlignedDimension
13
0.000000
23
0.000000
33
0.0
14
41.490765
24
0.000000
34
0.0
50
0.000000
100
AcDbRotatedDimension
62
0
0
LWPOLYLINE
100
AcDbPolyline
8
Layer_1
90
15
70
0
10
11.712222
20
3.368963
30
0.0
10
5.503333
20
6.991779
30
0.0
10
5.423395
20
10.143064
30
0.0
10
5.343456
20
13.294346
30
0.0
10
5.987839
20
12.959661
30
0.0
10
12.169884
20
9.416934
30
0.0
10
18.000995
20
6.208889
30
0.0
10
24.387222
20
9.725462
30
0.0
10
30.480000
20
13.242036
30
0.0
10
30.475919
20
10.078240
30
0.0
10
30.471838
20
6.914444
30
0.0
10
24.366020
20
3.386667
30
0.0
10
18.090656
20
-0.197482
30
0.0
10
11.712222
20
3.368963
30
0.0
10
11.712222
20
3.368963
30
0.0
62
0
0
LWPOLYLINE
100
AcDbPolyline
8
Layer_1
90
61
70
0
10
140.033423
20
10.585154
30
0.0
10
137.396131
20
11.315439
30
0.0
10
135.224484
20
12.467888
30
0.0
10
134.311851
20
13.203428
30
0.0
10
133.513918
20
14.045712
30
0.0
10
132.830114
20
14.995142
30
0.0
10
132.259869
20
16.052120
30
0.0
10
131.770580
20
17.696574
30
0.0
10
131.656667
20
20.461111
30
0.0
10
131.779859
20
23.310995
30
0.0
10
132.003206
20
24.207557
30
0.0
10
132.396038
20
25.142184
30
0.0
10
133.628713
20
27.110969
30
0.0
10
135.295086
20
28.681217
30
0.0
10
137.399234
20
29.855897
30
0.0
10
139.945231
20
30.637974
30
0.0
10
141.591015
20
30.911335
30
0.0
10
143.180538
20
31.022441
30
0.0
10
144.711522
20
30.971756
30
0.0
10
146.181687
20
30.759743
30
0.0
10
147.588757
20
30.386864
30
0.0
10
148.930453
20
29.853583
30
0.0
10
150.204497
20
29.160364
30
0.0
10
151.408610
20
28.307668
30
0.0
10
152.390170
20
27.524462
30
0.0
10
150.947445
20
26.063589
30
0.0
10
149.504719
20
24.602717
30
0.0
10
148.425868
20
25.384232
30
0.0
10
147.212632
20
26.098639
30
0.0
10
145.875465
20
26.552996
30
0.0
10
144.350687
20
26.762064
30
0.0
10
142.574617
20
26.740606
30
0.0
10
140.138529
20
26.337404
30
0.0
10
138.219175
20
25.507686
30
0.0
10
137.462091
20
24.938420
30
0.0
10
136.844770
20
24.269168
30
0.0
10
136.370742
20
23.502147
30
0.0
10
136.043532
20
22.639570
30
0.0
10
135.772736
20
20.807663
30
0.0
10
135.943072
20
19.022963
30
0.0
10
136.522605
20
17.429348
30
0.0
10
137.479399
20
16.170693
30
0.0
10
138.396699
20
15.511161
30
0.0
10
139.546063
20
15.008426
30
0.0
10
140.934236
20
14.660224
30
0.0
10
142.567962
20
14.464295
30
0.0
10
144.349897
20
14.465821
30
0.0
10
145.968410
20
14.724376
30
0.0
10
147.416497
20
15.238197
30
0.0
10
148.687152
20
16.005519
30
0.0
10
149.630971
20
16.720408
30
0.0
10
151.168938
20
15.204093
30
0.0
10
152.706908
20
13.687778
30
0.0
10
151.918453
20
13.026940
30
0.0
10
150.723826
20
12.221824
30
0.0
10
149.178305
20
11.449521
30
0.0
10
147.527776
20
10.818032
30
0.0
10
146.018126
20
10.435356
30
0.0
10
143.192138
20
10.205656
30
0.0
10
140.033423
20
10.585154
30
0.0
10
140.033423
20
10.585154
30
0.0
62
0
0
LWPOLYLINE
100
AcDbPolyline
8
Layer_1
90
83
70
0
10
237.142782
20
10.438960
30
0.0
10
234.670912
20
11.276174
30
0.0
10
233.553235
20
11.874000
30
0.0
10
232.616132
20
12.543996
30
0.0
10
231.861105
20
13.351802
30
0.0
10
231.061775
20
14.430831
30
0.0
10
230.467991
20
15.411657
30
0.0
10
230.329602
20
15.924855
30
0.0
10
232.184194
20
16.896811
30
0.0
10
233.933944
20
17.773850
30
0.0
10
234.436051
20
16.923848
30
0.0
10
234.938123
20
16.232683
30
0.0
10
235.569274
20
15.636890
30
0.0
10
237.202125
20
14.737669
30
0.0
10
239.301229
20
14.238690
30
0.0
10
241.833211
20
14.152457
30
0.0
10
243.625178
20
14.345165
30
0.0
10
244.811823
20
14.769780
30
0.0
10
245.490483
20
15.485823
30
0.0
10
245.758493
20
16.552816
30
0.0
10
245.773671
20
17.207086
30
0.0
10
245.659332
20
17.724310
30
0.0
10
245.341301
20
18.134047
30
0.0
10
244.745407
20
18.465855
30
0.0
10
242.423338
20
19.013926
30
0.0
10
238.099744
20
19.604998
30
0.0
10
234.863692
20
20.220400
30
0.0
10
233.702883
20
20.654993
30
0.0
10
232.811926
20
21.202079
30
0.0
10
232.164601
20
21.882582
30
0.0
10
231.734688
20
22.717427
30
0.0
10
231.495969
20
23.727537
30
0.0
10
231.422222
20
24.933837
30
0.0
10
231.553123
20
26.341139
30
0.0
10
231.950713
20
27.546519
30
0.0
10
232.622328
20
28.554804
30
0.0
10
233.575300
20
29.370820
30
0.0
10
234.816964
20
29.999396
30
0.0
10
236.354653
20
30.445358
30
0.0
10
238.195701
20
30.713535
30
0.0
10
240.347441
20
30.808752
30
0.0
10
243.098626
20
30.713730
30
0.0
10
245.135967
20
30.348760
30
0.0
10
246.718033
20
29.636913
30
0.0
10
248.103396
20
28.501261
30
0.0
10
249.484444
20
26.876443
30
0.0
10
248.999749
20
26.472617
30
0.0
10
247.834418
20
25.844032
30
0.0
10
246.184392
20
25.055393
30
0.0
10
244.864636
20
26.062785
30
0.0
10
243.769174
20
26.776904
30
0.0
10
242.643442
20
27.219378
30
0.0
10
241.333896
20
27.431476
30
0.0
10
239.686990
20
27.454468
30
0.0
10
237.927116
20
27.236219
30
0.0
10
236.666861
20
26.707046
30
0.0
10
235.908813
20
25.868698
30
0.0
10
235.655556
20
24.722929
30
0.0
10
235.801005
20
24.119050
30
0.0
10
236.271179
20
23.717157
30
0.0
10
237.116820
20
23.493114
30
0.0
10
238.388669
20
23.422782
30
0.0
10
240.553612
20
23.292669
30
0.0
10
243.009274
20
22.957667
30
0.0
10
245.296049
20
22.495070
30
0.0
10
246.954334
20
21.982170
30
0.0
10
248.138723
20
21.340937
30
0.0
10
249.019120
20
20.546012
30
0.0
10
249.636651
20
19.548178
30
0.0
10
250.032438
20
18.298216
30
0.0
10
250.196928
20
17.032411
30
0.0
10
250.143605
20
15.827708
30
0.0
10
249.882536
20
14.701822
30
0.0
10
249.423790
20
13.672467
30
0.0
10
248.777432
20
12.757357
30
0.0
10
247.953532
20
11.974205
30
0.0
10
246.962156
20
11.340726
30
0.0
10
245.813371
20
10.874635
30
0.0
10
243.947576
20
10.520777
30
0.0
10
241.463184
20
10.309241
30
0.0
10
238.986238
20
10.271482
30
0.0
10
237.142782
20
10.438960
30
0.0
10
237.142782
20
10.438960
30
0.0
62
0
0
LWPOLYLINE
100
AcDbPolyline
8
Layer_1
90
17
70
0
10
54.794353
20
10.967441
30
0.0
10
59.548889
20
20.853818
30
0.0
10
64.205556
20
30.474429
30
0.0
10
66.545454
20
30.477251
30
0.0
10
68.885356
20
30.480073
30
0.0
10
73.671565
20
20.703266
30
0.0
10
78.457778
20
10.814425
30
0.0
10
76.001454
20
10.784013
30
0.0
10
73.545130
20
10.865556
30
0.0
10
70.145343
20
17.982331
30
0.0
10
66.604444
20
25.103037
30
0.0
10
63.058720
20
17.986262
30
0.0
10
59.654107
20
10.865556
30
0.0
10
57.175296
20
10.783615
30
0.0
10
55.412980
20
10.798356
30
0.0
10
54.794353
20
10.967441
30
0.0
10
54.794353
20
10.967441
30
0.0
62
0
0
LWPOLYLINE
100
AcDbPolyline
8
Layer_1
90
29
70
0
10
92.004444
20
20.602222
30
0.0
10
92.004444
20
30.480000
30
0.0
10
94.615000
20
30.474835
30
0.0
10
97.225556
20
30.469671
30
0.0
10
100.753333
20
25.543950
30
0.0
10
104.422222
20
20.615368
30
0.0
10
108.091111
20
25.538224
30
0.0
10
111.618889
20
30.463944
30
0.0
10
114.229444
20
30.471959
30
0.0
10
116.840000
20
30.480000
30
0.0
10
116.840000
20
20.602222
30
0.0
10
116.840000
20
10.724444
30
0.0
10
114.582222
20
10.724444
30
0.0
10
112.324444
20
10.724444
30
0.0
10
112.324444
20
17.415829
30
0.0
10
112.324444
20
24.107216
30
0.0
10
108.604310
20
19.109162
30
0.0
10
105.576734
20
15.217734
30
0.0
10
104.766774
20
14.375942
30
0.0
10
104.300421
20
14.124618
30
0.0
10
103.840046
20
14.393530
30
0.0
10
103.049178
20
15.242500
30
0.0
10
100.188889
20
19.022591
30
0.0
10
96.661111
20
23.907059
30
0.0
10
96.585447
20
17.315753
30
0.0
10
96.509784
20
10.724444
30
0.0
10
94.257114
20
10.724444
30
0.0
10
92.004444
20
10.724444
30
0.0
10
92.004444
20
20.602222
30
0.0
62
0
0
LWPOLYLINE
100
AcDbPolyline
8
Layer_1
90
43
70
0
10
165.664444
20
20.602222
30
0.0
10
165.664444
20
30.480000
30
0.0
10
172.245443
20
30.480000
30
0.0
10
176.718207
20
30.423996
30
0.0
10
179.533219
20
30.187945
30
0.0
10
181.312113
20
29.669790
30
0.0
10
182.676523
20
28.767476
30
0.0
10
183.910350
20
27.423665
30
0.0
10
184.694131
20
25.830415
30
0.0
10
185.011121
20
24.039214
30
0.0
10
184.844574
20
22.101550
30
0.0
10
184.330222
20
20.693400
30
0.0
10
183.447555
20
19.446943
30
0.0
10
182.278365
20
18.451547
30
0.0
10
180.904444
20
17.796578
30
0.0
10
179.428992
20
17.293872
30
0.0
10
180.318353
20
16.307947
30
0.0
10
182.745103
20
14.083496
30
0.0
10
186.266667
20
10.850756
30
0.0
10
183.654708
20
10.724444
30
0.0
10
181.042750
20
10.724444
30
0.0
10
177.593337
20
13.758333
30
0.0
10
174.143924
20
16.792222
30
0.0
10
174.137518
20
18.810252
30
0.0
10
174.131111
20
20.828282
30
0.0
10
176.695735
20
20.926919
30
0.0
10
178.980419
20
21.128575
30
0.0
10
179.502935
20
21.378236
30
0.0
10
179.941291
20
21.817403
30
0.0
10
180.459571
20
22.701279
30
0.0
10
180.636239
20
23.668363
30
0.0
10
180.470576
20
24.595002
30
0.0
10
179.961865
20
25.357545
30
0.0
10
179.125120
20
25.938415
30
0.0
10
177.956522
20
26.296859
30
0.0
10
176.209900
20
26.478482
30
0.0
10
173.639085
20
26.528889
30
0.0
10
169.897778
20
26.528889
30
0.0
10
169.897778
20
18.626667
30
0.0
10
169.897778
20
10.724444
30
0.0
10
167.781111
20
10.724444
30
0.0
10
165.664444
20
10.724444
30
0.0
10
165.664444
20
20.602222
30
0.0
62
0
0
LWPOLYLINE
100
AcDbPolyline
8
Layer_1
90
25
70
0
10
199.531111
20
20.602222
30
0.0
10
199.531111
20
30.480000
30
0.0
10
208.280000
20
30.480000
30
0.0
10
217.028889
20
30.480000
30
0.0
10
217.028889
20
28.363333
30
0.0
10
217.028889
20
26.246667
30
0.0
10
210.383199
20
26.246667
30
0.0
10
203.737512
20
26.246667
30
0.0
10
203.821532
20
24.482778
30
0.0
10
203.905556
20
22.718889
30
0.0
10
210.185000
20
22.642934
30
0.0
10
216.464444
20
22.566980
30
0.0
10
216.464444
20
20.596823
30
0.0
10
216.464444
20
18.626667
30
0.0
10
210.114444
20
18.626667
30
0.0
10
203.764444
20
18.626667
30
0.0
10
203.764444
20
16.933333
30
0.0
10
203.764444
20
15.240000
30
0.0
10
210.396667
20
15.240000
30
0.0
10
217.028889
20
15.240000
30
0.0
10
217.028889
20
12.982222
30
0.0
10
217.028889
20
10.724444
30
0.0
10
208.280000
20
10.724444
30
0.0
10
199.531111
20
10.724444
30
0.0
10
199.531111
20
20.602222
30
0.0
62
0
0
LWPOLYLINE
100
AcDbPolyline
8
Layer_1
90
17
70
0
10
270.368889
20
18.626667
30
0.0
10
270.368889
20
26.528889
30
0.0
10
266.700000
20
26.528889
30
0.0
10
263.031111
20
26.528889
30
0.0
10
263.031111
20
28.504444
30
0.0
10
263.031111
20
30.480000
30
0.0
10
272.626667
20
30.480000
30
0.0
10
282.222222
20
30.480000
30
0.0
10
282.222222
20
28.504444
30
0.0
10
282.222222
20
26.528889
30
0.0
10
278.553333
20
26.528889
30
0.0
10
274.884444
20
26.528889
30
0.0
10
274.884444
20
18.626667
30
0.0
10
274.884444
20
10.724444
30
0.0
10
272.626667
20
10.724444
30
0.0
10
270.368889
20
10.724444
30
0.0
10
270.368889
20
18.626667
30
0.0
62
0
0
LWPOLYLINE
100
AcDbPolyline
8
Layer_1
90
16
70
0
10
65.525853
20
12.087770
30
0.0
10
65.017030
20
12.803717
30
0.0
10
64.910258
20
13.707515
30
0.0
10
65.185480
20
14.586849
30
0.0
10
65.822638
20
15.229403
30
0.0
10
66.594882
20
15.514903
30
0.0
10
67.374860
20
15.187541
30
0.0
10
68.013047
20
14.578742
30
0.0
10
68.242705
20
13.581750
30
0.0
10
68.174754
20
12.562829
30
0.0
10
67.930294
20
12.278243
30
0.0
10
67.480609
20
12.009699
30
0.0
10
66.409733
20
11.611577
30
0.0
10
66.022897
20
11.737249
30
0.0
10
65.525853
20
12.087770
30
0.0
10
65.525853
20
12.087770
30
0.0
62
0
0
LWPOLYLINE
100
AcDbPolyline
8
Layer_1
90
23
70
0
10
0.065791
20
23.883126
30
0.0
10
0.141111
20
31.115141
30
0.0
10
9.080390
20
36.302953
30
0.0
10
18.019670
20
41.490765
30
0.0
10
27.001501
20
36.287922
30
0.0
10
35.983333
20
31.085082
30
0.0
10
36.058653
20
23.868095
30
0.0
10
36.058110
20
18.771101
30
0.0
10
35.951036
20
16.651111
30
0.0
10
33.265158
20
18.083431
30
0.0
10
30.762222
20
19.515751
30
0.0
10
30.762222
20
23.663430
30
0.0
10
30.762222
20
27.811112
30
0.0
10
24.565622
20
31.403332
30
0.0
10
18.044949
20
34.995556
30
0.0
10
11.541549
20
31.431656
30
0.0
10
5.362222
20
27.867757
30
0.0
10
5.362222
20
23.728866
30
0.0
10
5.362222
20
19.589976
30
0.0
10
2.842960
20
18.120543
30
0.0
10
0.157085
20
16.651111
30
0.0
10
0.065791
20
23.883126
30
0.0
10
0.065791
20
23.883126
30
0.0
62
0
0
LWPOLYLINE
100
AcDbPolyline
8
Layer_1
90
14
70
0
10
16.439444
20
18.105340
30
0.0
10
14.957778
20
18.963369
30
0.0
10
14.957778
20
20.608750
30
0.0
10
14.957778
20
22.254131
30
0.0
10
16.491605
20
23.131698
30
0.0
10
18.025433
20
24.009265
30
0.0
10
19.459989
20
23.222966
30
0.0
10
20.894545
20
22.436667
30
0.0
10
20.818939
20
20.619587
30
0.0
10
20.743333
20
18.802508
30
0.0
10
19.473333
20
18.031214
30
0.0
10
18.062222
20
17.253616
30
0.0
10
16.439444
20
18.105340
30
0.0
10
16.439444
20
18.105340
30
0.0
  0
ENDSEC
  0
SECTION
  2
OBJECTS
  0
DICTIONARY
  5
C
330
0
100
AcDbDictionary
  3
ACAD_GROUP
350
D
  3
ACAD_MLINESTYLE
350
17
  0
DICTIONARY
  5
D
330
C
100
AcDbDictionary
  0
DICTIONARY
  5
1A
330
C
100
AcDbDictionary
  0
DICTIONARY
  5
17
330
C
100
AcDbDictionary
  3
STANDARD
350
18
  0
DICTIONARY
  5
19
330
C
100
AcDbDictionary
  0
ENDSEC
  0
EOF
