<?xml version="1.0" encoding="UTF-8" standalone="no"?>
<!-- Created with Inkscape (http://www.inkscape.org/) -->

<svg
   xmlns:dc="http://purl.org/dc/elements/1.1/"
   xmlns:cc="http://creativecommons.org/ns#"
   xmlns:rdf="http://www.w3.org/1999/02/22-rdf-syntax-ns#"
   xmlns:svg="http://www.w3.org/2000/svg"
   xmlns="http://www.w3.org/2000/svg"
   xmlns:sodipodi="http://sodipodi.sourceforge.net/DTD/sodipodi-0.dtd"
   xmlns:inkscape="http://www.inkscape.org/namespaces/inkscape"
   version="1.1"
   id="svg10"
   width="1000"
   height="148"
   viewBox="0 0 1000 148"
   sodipodi:docname="amcrest_logo.svg"
   inkscape:version="0.92.3 (2405546, 2018-03-11)">
  <metadata
     id="metadata16">
    <rdf:RDF>
      <cc:Work
         rdf:about="">
        <dc:format>image/svg+xml</dc:format>
        <dc:type
           rdf:resource="http://purl.org/dc/dcmitype/StillImage" />
        <dc:title></dc:title>
      </cc:Work>
    </rdf:RDF>
  </metadata>
  <defs
     id="defs14" />
  <sodipodi:namedview
     pagecolor="#ffffff"
     bordercolor="#666666"
     borderopacity="1"
     objecttolerance="10"
     gridtolerance="10"
     guidetolerance="10"
     inkscape:pageopacity="0"
     inkscape:pageshadow="2"
     inkscape:window-width="1417"
     inkscape:window-height="918"
     id="namedview12"
     showgrid="false"
     inkscape:zoom="1"
     inkscape:cx="500"
     inkscape:cy="74"
     inkscape:window-x="1292"
     inkscape:window-y="894"
     inkscape:window-maximized="0"
     inkscape:current-layer="svg10" />
  <path
     style="fill:#000000"
     d="m 41.5,136.06273 -22,-12.83675 -0.283247,-11.16597 -0.283246,-11.16596 2.283246,1.18589 c 1.255786,0.65223 11.112983,6.30107 21.904882,12.55297 C 53.913535,120.88481 63.211172,126 63.783052,126 c 0.57188,0 10.754644,-5.60714 22.628365,-12.4603 L 108,101.0794 107.98554,112.2897 107.97108,123.5 86.336293,136 C 74.437158,142.875 64.431164,148.58988 64.100751,148.69974 63.770338,148.8096 53.6,143.12294 41.5,136.06273 Z M 496.18142,110.49355 C 482.61464,108.03557 473.49077,101.61896 468.63733,91.12241 466.8639,87.28702 466.5,84.62712 466.5,75.5 c 0,-9.77922 0.29075,-11.61999 2.61982,-16.58648 4.80559,-10.24744 13.67062,-16.70115 26.74911,-19.47327 15.80934,-3.35095 29.57838,-0.55195 40.61827,8.25699 l 3.47797,2.77514 -5.11202,5.17632 -5.11202,5.17632 -3.8227,-2.76915 c -5.53936,-4.01269 -11.64801,-5.42873 -20.73278,-4.80605 -12.68527,0.86947 -20.75463,5.93643 -23.14164,14.53123 -2.37169,8.53962 -0.27344,17.99264 5.08772,22.92122 3.79614,3.48984 9.72128,5.47678 18.03034,6.04629 8.7936,0.60273 16.10923,-1.23984 21.68217,-5.46103 l 3.34424,-2.53307 5.44949,5.37277 5.4495,5.37277 -2.79374,2.34155 c -4.4278,3.71113 -14.49447,8.13269 -20.90667,9.18278 -7.51812,1.2312 -12.11558,1.11612 -21.20564,-0.53078 z m 344.08828,0.51801 c -5.85106,-1.24557 -12.15876,-4.17885 -16.03931,-7.45879 -3.06894,-2.59395 -8.91727,-11.24127 -8.10188,-11.97942 0.20432,-0.18497 3.16144,-1.73474 6.57139,-3.44394 l 6.1999,-3.10762 1.77912,3.01182 c 4.12103,6.97634 13.2783,10.40717 26.21041,9.81989 10.04916,-0.45636 13.45905,-2.54155 13.90848,-8.50521 0.5217,-6.92265 -1.0484,-7.54837 -27.1373,-10.81482 C 825.24422,76.22767 820,72.04265 820,59.65176 c 0,-14.26652 9.80245,-20.71886 31.62479,-20.81663 15.09117,-0.0676 20.99417,1.6886 27.48173,8.17615 2.69141,2.69142 4.89348,5.28217 4.89348,5.75723 0,0.47506 -2.63095,2.12123 -5.84655,3.65815 l -5.84655,2.79439 -4.6763,-3.5695 C 862.28489,51.57108 858.10398,50.4473 849.28461,50.72039 839.79411,51.01426 835,54.26255 835,60.39907 c 0,3.36812 2.58883,4.59963 9.68426,4.60682 8.81756,0.009 24.72477,2.68428 30.35078,5.10453 6.37839,2.74391 9.49585,6.47496 10.90667,13.05338 2.61498,12.19325 -3.38284,22.74661 -14.94945,26.30403 -6.36763,1.95842 -24.49565,2.86931 -30.72256,1.54373 z M 194.15322,109.13899 C 194.34395,108.62106 201.925,92.85735 211,74.10852 l 16.5,-34.08878 8.29098,-0.01 8.29099,-0.01 16.95901,34.64223 C 270.36844,93.69546 278,109.46298 278,109.68117 c 0,0.21818 -3.91658,0.26668 -8.70351,0.10776 L 260.59298,109.5 248.54649,84.28308 C 241.92092,70.41377 236.275,59.05989 236,59.05223 c -0.275,-0.008 -5.92862,11.33995 -12.56359,25.21692 L 211.37282,109.5 l -8.78319,0.29034 c -5.19802,0.17183 -8.64164,-0.094 -8.43641,-0.65135 z M 326,75 V 40 l 9.25,0.0183 9.25,0.0183 12.5,17.45334 c 6.875,9.59934 12.725,17.4579 13,17.46348 0.275,0.006 6.125,-7.84386 13,-17.44319 l 12.5,-17.45334 9.25,-0.0284 L 414,40 v 35 35 h -8 -8 V 86.29037 62.58073 l -13.18158,17.70964 c -9.81362,13.18474 -13.71006,17.6974 -15.25,17.66177 C 368.0611,97.91727 364.10911,93.20935 355,80.59712 L 342.5,63.28995 342.2319,86.64497 341.9638,110 H 333.9819 326 Z m 261,0 V 40 h 23.3185 c 26.02607,0 30.51463,0.73691 36.96052,6.068 6.86583,5.6784 9.63749,14.20021 7.68207,23.61942 -1.43117,6.8939 -7.11532,13.10439 -13.96109,15.25384 -2.475,0.77711 -4.82759,1.57866 -5.22798,1.78124 -0.40038,0.20257 4.88712,5.32148 11.75,11.37535 C 654.38491,104.15172 660,109.30629 660,109.55244 660,109.7986 655.83526,110 650.74503,110 h -9.25497 L 629.26773,99.25 617.0454,88.5 617.0227,81.3495 617,74.199 l 9.08725,-0.3495 c 8.51505,-0.32749 9.23918,-0.52617 11.5,-3.15526 3.2544,-3.78451 3.28774,-9.5236 0.0729,-12.54381 C 634.10326,54.80893 629.73677,54 615.2566,54 H 602 v 28 28 h -7.5 -7.5 z m 120,0 V 40 h 31 31 v 7.5 7.5 h -23.54772 -23.54771 l 0.29771,6.25 0.29772,6.25 22.25,0.26913 22.25,0.26913 V 75.01913 82 H 744.5 722 v 6 6 h 23.5 23.5 v 8 8 h -31 -31 z m 251,7 V 54 h -13 -13 v -7 -7 h 34 34 v 7 7 h -13 -13 v 28 28 h -8 -8 z m -725.82178,23.16932 c -3.3852,-2.60433 -2.78198,-8.98976 1.0516,-11.13177 2.47085,-1.38058 2.99261,-1.36651 5.5,0.14833 2.16873,1.31024 2.83637,2.54558 3.07504,5.68981 0.27246,3.58952 -0.0144,4.18132 -2.70034,5.57026 -3.7392,1.93361 -4.07055,1.92038 -6.9263,-0.27663 z M 0.2331175,63.37475 0.5,37.7495 32.174611,19.36749 63.849223,0.98548 95.674611,19.42075 127.5,37.85601 l 0.26688,25.572 C 127.91367,77.4926 127.74207,89 127.38556,89 c -0.35652,0 -4.63912,-2.28382 -9.51689,-5.07515 L 109,78.8497 V 64.1532 49.45669 L 87.043543,36.72835 C 74.967492,29.72776 64.570355,24 63.938795,24 63.307234,24 52.93764,29.68259 40.895252,36.62799 L 19,49.25598 V 63.92134 78.5867 l -8.926519,5.20665 C 5.1638958,86.65701 0.8812987,89 0.5565987,89 0.2318987,89 0.0863322,77.46864 0.2331175,63.37475 Z M 58.25,83.84722 53,80.80696 v -5.83009 -5.83009 l 5.434821,-3.10949 5.434822,-3.10949 5.083074,2.7861 L 74.035791,68.5 73.767895,74.93847 73.5,81.37694 69,84.10987 c -2.475,1.50311 -4.725,2.74298 -5,2.75527 -0.275,0.0123 -2.8625,-1.34577 -5.75,-3.01792 z"
     id="path3724"
     inkscape:connector-curvature="0" />
</svg>
